
<global>
ampeg_release=1.5
</global>

<group>
group_label=RR1
seq_length=4
seq_position=1

<region>
hivel=103
key=D3
lovel=78
offset=5075
sample=Bass_a1_HotRods_Hits_F_D4_RR1.opus
</region>

<region>
hivel=127
key=D3
lovel=104
offset=6228
sample=Bass_a1_HotRods_Hits_FF_D4_RR1.opus
</region>

<region>
hivel=77
key=D3
lovel=52
offset=7105
sample=Bass_a1_HotRods_Hits_MF_D4_RR1.opus
</region>

<region>
hivel=51
key=D3
lovel=26
offset=6387
sample=Bass_a1_HotRods_Hits_MP_D4_RR1.opus
</region>

<region>
hivel=25
key=D3
lovel=0
offset=6379
sample=Bass_a1_HotRods_Hits_P_D4_RR1.opus
</region>
</group>

<group>
group_label=RR3
seq_length=4
seq_position=2

<region>
hivel=103
key=D3
lovel=78
offset=7313
sample=Bass_a1_HotRods_Hits_F_D4_RR3.opus
</region>

<region>
hivel=127
key=D3
lovel=104
offset=736
sample=Bass_a1_HotRods_Hits_FF_D4_RR3.opus
</region>

<region>
hivel=77
key=D3
lovel=52
offset=5329
sample=Bass_a1_HotRods_Hits_MF_D4_RR3.opus
</region>

<region>
hivel=51
key=D3
lovel=26
offset=7125
sample=Bass_a1_HotRods_Hits_MP_D4_RR3.opus
</region>

<region>
hivel=25
key=D3
lovel=0
offset=6475
sample=Bass_a1_HotRods_Hits_P_D4_RR3.opus
</region>
</group>

<group>
group_label=RR5
seq_length=4
seq_position=3

<region>
hivel=103
key=D3
lovel=78
offset=4710
sample=Bass_a1_HotRods_Hits_F_D4_RR5.opus
</region>

<region>
hivel=127
key=D3
lovel=104
offset=6336
sample=Bass_a1_HotRods_Hits_FF_D4_RR5.opus
</region>

<region>
hivel=77
key=D3
lovel=52
offset=6143
sample=Bass_a1_HotRods_Hits_MF_D4_RR5.opus
</region>

<region>
hivel=51
key=D3
lovel=26
offset=6808
sample=Bass_a1_HotRods_Hits_MP_D4_RR5.opus
</region>

<region>
hivel=25
key=D3
lovel=0
offset=6490
sample=Bass_a1_HotRods_Hits_P_D4_RR5.opus
</region>
</group>

<group>
group_label=RR7
seq_length=4
seq_position=4

<region>
hivel=103
key=D3
lovel=78
offset=6118
sample=Bass_a1_HotRods_Hits_F_D4_RR7.opus
</region>

<region>
hivel=127
key=D3
lovel=104
offset=5029
sample=Bass_a1_HotRods_Hits_FF_D4_RR7.opus
</region>

<region>
hivel=77
key=D3
lovel=52
offset=5376
sample=Bass_a1_HotRods_Hits_MF_D4_RR7.opus
</region>

<region>
hivel=51
key=D3
lovel=26
offset=6865
sample=Bass_a1_HotRods_Hits_MP_D4_RR7.opus
</region>

<region>
hivel=25
key=D3
lovel=0
offset=6383
sample=Bass_a1_HotRods_Hits_P_D4_RR7.opus
</region>
</group>

<group>
group_label=Rim_RR1
seq_length=2
seq_position=1

<region>
hivel=103
key=E3
lovel=78
offset=6349
sample=Bass_a1_HotRods_Rim_Hit_F_D4_RR1.opus
</region>

<region>
hivel=127
key=E3
lovel=104
offset=7147
sample=Bass_a1_HotRods_Rim_Hit_FF_D4_RR1.opus
</region>

<region>
hivel=77
key=E3
lovel=52
offset=6367
sample=Bass_a1_HotRods_Rim_Hit_MF_D4_RR1.opus
</region>

<region>
hivel=51
key=E3
lovel=26
offset=6353
sample=Bass_a1_HotRods_Rim_Hit_MP_D4_RR1.opus
</region>

<region>
hivel=25
key=E3
lovel=0
offset=6821
sample=Bass_a1_HotRods_Rim_Hit_P_D4_RR1.opus
</region>
</group>

<group>
group_label=Rim_RR3
seq_length=2
seq_position=2

<region>
hivel=103
key=E3
lovel=78
offset=4788
sample=Bass_a1_HotRods_Rim_Hit_F_D4_RR3.opus
</region>

<region>
hivel=127
key=E3
lovel=104
offset=6548
sample=Bass_a1_HotRods_Rim_Hit_FF_D4_RR3.opus
</region>

<region>
hivel=77
key=E3
lovel=52
offset=8067
sample=Bass_a1_HotRods_Rim_Hit_MF_D4_RR3.opus
</region>

<region>
hivel=51
key=E3
lovel=26
offset=6613
sample=Bass_a1_HotRods_Rim_Hit_MP_D4_RR3.opus
</region>

<region>
hivel=25
key=E3
lovel=0
offset=7328
sample=Bass_a1_HotRods_Rim_Hit_P_D4_RR3.opus
</region>
</group>